<?xml version="1.0" encoding="UTF-8"?>
<svg version="1.1" xmlns="http://www.w3.org/2000/svg" width="142" height="101">
<path d="M0 0 C46.86 0 93.72 0 142 0 C142 33.33 142 66.66 142 101 C95.14 101 48.28 101 0 101 C0 67.67 0 34.34 0 0 Z " fill="#222E46" transform="translate(0,0)"/>
<path d="M0 0 C46.53 0 93.06 0 141 0 C141 7.59 141 15.18 141 23 C94.47 23 47.94 23 0 23 C0 15.41 0 7.82 0 0 Z " fill="#ED3327" transform="translate(0,78)"/>
<path d="M0 0 C3.35286458 0.03255208 6.70572917 0.06510417 10.05859375 0.09765625 C10.38859375 6.03765625 10.71859375 11.97765625 11.05859375 18.09765625 C13.69859375 18.42765625 16.33859375 18.75765625 19.05859375 19.09765625 C20.04859375 19.42765625 21.03859375 19.75765625 22.05859375 20.09765625 C22.32671875 18.81890625 22.59484375 17.54015625 22.87109375 16.22265625 C25.99609375 2.16015625 25.99609375 2.16015625 28.05859375 0.09765625 C30.24498828 0.02506679 32.43359764 0.01391842 34.62109375 0.03515625 C36.41740234 0.04869141 36.41740234 0.04869141 38.25 0.0625 C39.17683594 0.07410156 40.10367188 0.08570312 41.05859375 0.09765625 C41.3373938 1.01708008 41.3373938 1.01708008 41.62182617 1.95507812 C42.49589729 4.83614581 43.37089412 7.71693118 44.24609375 10.59765625 C44.71994507 12.15842896 44.71994507 12.15842896 45.20336914 13.75073242 C47.48598174 21.2548719 49.82291444 28.73972709 52.2109375 36.2109375 C53.05859375 39.09765625 53.05859375 39.09765625 53.05859375 41.09765625 C48.51710769 41.6949707 44.64551719 42.03618649 40.6015625 39.64453125 C39.08001909 38.41070729 37.58183825 37.14747025 36.109375 35.85546875 C33.56963479 33.67854857 31.10721606 32.4265429 28.05859375 31.09765625 C27.06859375 34.39765625 26.07859375 37.69765625 25.05859375 41.09765625 C22.08859375 41.09765625 19.11859375 41.09765625 16.05859375 41.09765625 C16.77311963 36.3341504 17.85394219 31.75564229 19.05859375 27.09765625 C16.41859375 26.43765625 13.77859375 25.77765625 11.05859375 25.09765625 C11.55359375 33.01765625 11.55359375 33.01765625 12.05859375 41.09765625 C9.08859375 41.09765625 6.11859375 41.09765625 3.05859375 41.09765625 C2.33831563 34.70518798 1.9548661 28.52877048 2.05859375 22.09765625 C0.73859375 22.09765625 -0.58140625 22.09765625 -1.94140625 22.09765625 C-3.92140625 28.03765625 -5.90140625 33.97765625 -7.94140625 40.09765625 C-10.25140625 40.09765625 -12.56140625 40.09765625 -14.94140625 40.09765625 C-17.98294847 33.59981604 -19.94140625 27.31997681 -19.94140625 20.09765625 C-17.63140625 20.09765625 -15.32140625 20.09765625 -12.94140625 20.09765625 C-12.61140625 21.41765625 -12.28140625 22.73765625 -11.94140625 24.09765625 C-11.28140625 24.09765625 -10.62140625 24.09765625 -9.94140625 24.09765625 C-9.79445313 23.24107422 -9.79445313 23.24107422 -9.64453125 22.3671875 C-5.5535846 0.18438196 -5.5535846 0.18438196 0 0 Z " fill="#E33126" transform="translate(76.94140625,20.90234375)"/>
<path d="M0 0 C3.35286458 0.03255208 6.70572917 0.06510417 10.05859375 0.09765625 C10.05859375 5.70765625 10.05859375 11.31765625 10.05859375 17.09765625 C7.41859375 17.09765625 4.77859375 17.09765625 2.05859375 17.09765625 C1.72859375 15.11765625 1.39859375 13.13765625 1.05859375 11.09765625 C-1.91140625 20.66765625 -4.88140625 30.23765625 -7.94140625 40.09765625 C-10.25140625 40.09765625 -12.56140625 40.09765625 -14.94140625 40.09765625 C-17.98294847 33.59981604 -19.94140625 27.31997681 -19.94140625 20.09765625 C-17.63140625 20.09765625 -15.32140625 20.09765625 -12.94140625 20.09765625 C-12.61140625 21.41765625 -12.28140625 22.73765625 -11.94140625 24.09765625 C-11.28140625 24.09765625 -10.62140625 24.09765625 -9.94140625 24.09765625 C-9.79445313 23.24107422 -9.79445313 23.24107422 -9.64453125 22.3671875 C-5.5535846 0.18438196 -5.5535846 0.18438196 0 0 Z " fill="#F9F9FA" transform="translate(76.94140625,20.90234375)"/>
<path d="M0 0 C2.97 0 5.94 0 9 0 C9 10.89 9 21.78 9 33 C14.28 33 19.56 33 25 33 C24.34 35.31 23.68 37.62 23 40 C15.41 40 7.82 40 0 40 C0 26.8 0 13.6 0 0 Z " fill="#FEFEFE" transform="translate(15,21)"/>
<path d="M0 0 C4.29 0 8.58 0 13 0 C13.67184618 2.10251861 14.33730968 4.20707763 15 6.3125 C15.37125 7.48425781 15.7425 8.65601563 16.125 9.86328125 C17 13 17 13 17 16 C14.36 16 11.72 16 9 16 C8.67 14.35 8.34 12.7 8 11 C7.67 12.98 7.34 14.96 7 17 C4.36 17 1.72 17 -1 17 C-1.02699725 14.72923158 -1.04639453 12.45837179 -1.0625 10.1875 C-1.07990234 8.29064453 -1.07990234 8.29064453 -1.09765625 6.35546875 C-1 3 -1 3 0 0 Z " fill="#F8F6F6" transform="translate(46,21)"/>
<path d="M0 0 C2.97 0 5.94 0 9 0 C8.86181468 3.47951523 8.71317399 6.95850495 8.5625 10.4375 C8.52318359 11.43072266 8.48386719 12.42394531 8.44335938 13.44726562 C8.40146484 14.39150391 8.35957031 15.33574219 8.31640625 16.30859375 C8.26141968 17.62041626 8.26141968 17.62041626 8.20532227 18.95874023 C8 21 8 21 7 22 C4.32941149 22.14115161 1.67567762 22.04247107 -1 22 C-1.14715692 14.6094524 -0.70776992 7.35575165 0 0 Z " fill="#F0EFF1" transform="translate(44,40)"/>
<path d="M0 0 C2.97 0.33 5.94 0.66 9 1 C9.33 6.61 9.66 12.22 10 18 C7.03 18 4.06 18 1 18 C0.67 12.06 0.34 6.12 0 0 Z " fill="#F3F1F2" transform="translate(79,44)"/>
<path d="M0 0 C2 2 2 2 2 7 C6.62 7 11.24 7 16 7 C15 12 15 12 14 15 C13.34 15 12.68 15 12 15 C11.505 13.515 11.505 13.515 11 12 C8.69 11.67 6.38 11.34 4 11 C3.67 11.66 3.34 12.32 3 13 C3 12.34 3 11.68 3 11 C-9.87 10.505 -9.87 10.505 -23 10 C-23 9.67 -23 9.34 -23 9 C-15.34916042 7.75088333 -7.72559014 7.90946574 0 8 C0 5.36 0 2.72 0 0 Z " fill="#C83C37" transform="translate(53,30)"/>
<path d="M0 0 C2.72797663 2.72797663 3.2419699 5.80898557 4.1875 9.4375 C4.47270508 10.4594043 4.47270508 10.4594043 4.76367188 11.50195312 C5.65538519 14.86150773 6.12158796 16.63523612 5 20 C2.36 18.68 -0.28 17.36 -3 16 C-2.40984815 10.49191603 -1.43336231 5.35121931 0 0 Z " fill="#382F44" transform="translate(110,28)"/>
<path d="M0 0 C6.57692308 0.57692308 6.57692308 0.57692308 8 2 C7.71269945 4.33944736 7.38063221 6.6739143 7 9 C3.625 9.625 3.625 9.625 0 10 C-2 8 -2 8 -2.25 5 C-2 2 -2 2 0 0 Z " fill="#FDEBEA" transform="translate(110,85)"/>
<path d="M0 0 C3.625 0.375 3.625 0.375 7 1 C8.33157895 6.44736842 8.33157895 6.44736842 6.875 8.875 C4.40522151 10.3568671 2.83386167 10.3633156 0 10 C-2 8 -2 8 -2.25 5 C-2 2 -2 2 0 0 Z " fill="#FCE1DF" transform="translate(22,85)"/>
<path d="M0 0 C2.375 0.25 2.375 0.25 5 1 C6.3125 3.0625 6.3125 3.0625 7 5 C7.33 3.35 7.66 1.7 8 0 C8.66 0 9.32 0 10 0 C10 3.3 10 6.6 10 10 C8.68 10 7.36 10 6 10 C5.34 9.01 4.68 8.02 4 7 C3.67 7.99 3.34 8.98 3 10 C2.01 10 1.02 10 0 10 C0 6.7 0 3.4 0 0 Z " fill="#FDEAE9" transform="translate(120,85)"/>
<path d="M0 0 C1.32 0 2.64 0 4 0 C4.66 0.99 5.32 1.98 6 3 C6.33 2.01 6.66 1.02 7 0 C7.99 0 8.98 0 10 0 C10 3.3 10 6.6 10 10 C7.625 9.75 7.625 9.75 5 9 C3.6875 6.9375 3.6875 6.9375 3 5 C2.67 6.65 2.34 8.3 2 10 C1.34 10 0.68 10 0 10 C0 6.7 0 3.4 0 0 Z " fill="#FDE9E7" transform="translate(32,85)"/>
<path d="M0 0 C5.75 -0.125 5.75 -0.125 8 1 C7.979375 1.928125 7.95875 2.85625 7.9375 3.8125 C7.84230396 7.02286011 7.84230396 7.02286011 9 10 C7.0625 9.625 7.0625 9.625 5 9 C4.67 8.34 4.34 7.68 4 7 C3.67 7.99 3.34 8.98 3 10 C2.01 10 1.02 10 0 10 C0 6.7 0 3.4 0 0 Z " fill="#FBD4D2" transform="translate(62,85)"/>
<path d="M0 0 C0.99 0 1.98 0 3 0 C3 2.31 3 4.62 3 7 C3.99 7 4.98 7 6 7 C6 4.69 6 2.38 6 0 C6.99 0 7.98 0 9 0 C9.1953125 6.0546875 9.1953125 6.0546875 9 8 C7 10 7 10 4.5 10.25 C2 10 2 10 0 8 C-0.26991906 5.31160615 -0.08737357 2.70858064 0 0 Z " fill="#FBD9D7" transform="translate(72,85)"/>
<path d="M0 0 C1.98 0 3.96 0 6 0 C6 0.66 6 1.32 6 2 C5.01 2.33 4.02 2.66 3 3 C3.99 3.66 4.98 4.32 6 5 C6 6.32 6 7.64 6 9 C3.69 9.33 1.38 9.66 -1 10 C-0.67 9.01 -0.34 8.02 0 7 C0.99 7.33 1.98 7.66 3 8 C3 7.34 3 6.68 3 6 C1.68 5.34 0.36 4.68 -1 4 C-0.67 2.68 -0.34 1.36 0 0 Z " fill="#FDE9E7" transform="translate(45,85)"/>
<path d="M0 0 C0.78375 0.04125 1.5675 0.0825 2.375 0.125 C2.375 0.785 2.375 1.445 2.375 2.125 C1.055 2.125 -0.265 2.125 -1.625 2.125 C-1.625 3.775 -1.625 5.425 -1.625 7.125 C0.025 7.125 1.675 7.125 3.375 7.125 C3.045 8.115 2.715 9.105 2.375 10.125 C0 10.25 0 10.25 -2.625 10.125 C-4.625 8.125 -4.625 8.125 -4.875 5.125 C-4.55416156 1.2749387 -3.94115238 0.18767392 0 0 Z " fill="#FBDAD7" transform="translate(88.625,84.875)"/>
<path d="M0 0 C0.94875 0.04125 1.8975 0.0825 2.875 0.125 C2.875 0.785 2.875 1.445 2.875 2.125 C1.555 2.455 0.235 2.785 -1.125 3.125 C-1.125 4.445 -1.125 5.765 -1.125 7.125 C-0.135 7.455 0.855 7.785 1.875 8.125 C1.875 8.785 1.875 9.445 1.875 10.125 C-0.5 10.25 -0.5 10.25 -3.125 10.125 C-5.125 8.125 -5.125 8.125 -5.375 5.125 C-5.02345647 0.90647769 -4.22997422 0.16919897 0 0 Z " fill="#FCE5E4" transform="translate(15.125,84.875)"/>
<path d="M0 0 C2.97 0 5.94 0 9 0 C9 0.66 9 1.32 9 2 C8.01 2 7.02 2 6 2 C6 4.64 6 7.28 6 10 C5.01 10 4.02 10 3 10 C3 7.36 3 4.72 3 2 C2.01 2 1.02 2 0 2 C0 1.34 0 0.68 0 0 Z " fill="#FDE8E6" transform="translate(52,85)"/>
<path d="M0 0 C1.32 0 2.64 0 4 0 C4 3.3 4 6.6 4 10 C2.68 10 1.36 10 0 10 C0 6.7 0 3.4 0 0 Z " fill="#F9BEBA" transform="translate(102,85)"/>
<path d="M0 0 C1.65 0 3.3 0 5 0 C5.33 1.65 5.66 3.3 6 5 C5.01 5.66 4.02 6.32 3 7 C1.68 6.34 0.36 5.68 -1 5 C-0.67 3.35 -0.34 1.7 0 0 Z " fill="#EF4D42" transform="translate(14,87)"/>
<path d="M0 0 C2.31 0.33 4.62 0.66 7 1 C7.625 3.875 7.625 3.875 8 7 C7.34 7.66 6.68 8.32 6 9 C3.875 8.625 3.875 8.625 2 8 C2.66 7.67 3.32 7.34 4 7 C4 5.68 4 4.36 4 3 C2.68 2.34 1.36 1.68 0 1 C0 0.67 0 0.34 0 0 Z " fill="#FDEEED" transform="translate(22,85)"/>
<path d="M0 0 C2.64 0 5.28 0 8 0 C8 0.66 8 1.32 8 2 C7.01 2 6.02 2 5 2 C5 4.31 5 6.62 5 9 C4.34 9 3.68 9 3 9 C3 6.69 3 4.38 3 2 C2.01 2 1.02 2 0 2 C0 1.34 0 0.68 0 0 Z " fill="#FEF6F6" transform="translate(93,85)"/>
<path d="M0 0 C0.99 0 1.98 0 3 0 C3 2.64 3 5.28 3 8 C1.35 8.33 -0.3 8.66 -2 9 C-1.34 8.67 -0.68 8.34 0 8 C0 5.36 0 2.72 0 0 Z " fill="#FCE4E2" transform="translate(78,85)"/>
<path d="M0 0 C0.99 0.33 1.98 0.66 3 1 C2.67 2.65 2.34 4.3 2 6 C1.01 5.67 0.02 5.34 -1 5 C-0.67 3.35 -0.34 1.7 0 0 Z " fill="#EF4C41" transform="translate(112,87)"/>
<path d="M0 0 C1.32 0.33 2.64 0.66 4 1 C4 2.32 4 3.64 4 5 C2.68 5 1.36 5 0 5 C0 3.35 0 1.7 0 0 Z " fill="#EF5045" transform="translate(23,87)"/>
<path d="M0 0 C1.65 0 3.3 0 5 0 C5 0.66 5 1.32 5 2 C3.68 2 2.36 2 1 2 C1 3.65 1 5.3 1 7 C0.01 6.01 -0.98 5.02 -2 4 C-1.34 2.68 -0.68 1.36 0 0 Z " fill="#FCE3E1" transform="translate(86,85)"/>
<path d="M0 0 C1.32 0.33 2.64 0.66 4 1 C3.34 1 2.68 1 2 1 C2.185625 1.598125 2.37125 2.19625 2.5625 2.8125 C3 5 3 5 2 8 C1.34 8 0.68 8 0 8 C0 5.36 0 2.72 0 0 Z " fill="#FFFFFF" transform="translate(63,86)"/>
</svg>
